<svg width="461" height="769" viewBox="0 0 461 769" fill="none" xmlns="http://www.w3.org/2000/svg">
<circle cx="64" cy="443" r="64" fill="#88A2E2"/>
<path d="M316.909 576.454C289.394 576.454 265.697 570.576 245.818 558.818C226.061 546.939 210.788 530.273 200 508.818C189.333 487.242 184 461.97 184 433C184 404.394 189.333 379.182 200 357.364C210.788 335.545 225.818 318.515 245.091 306.273C264.485 294.03 287.152 287.909 313.091 287.909C328.848 287.909 344.121 290.515 358.909 295.727C373.697 300.939 386.97 309.121 398.727 320.273C410.485 331.424 419.758 345.909 426.545 363.727C433.333 381.424 436.727 402.939 436.727 428.273V447.545H214.727V406.818H383.455C383.455 392.515 380.545 379.848 374.727 368.818C368.909 357.667 360.727 348.879 350.182 342.454C339.758 336.03 327.515 332.818 313.455 332.818C298.182 332.818 284.848 336.576 273.455 344.091C262.182 351.485 253.455 361.182 247.273 373.182C241.212 385.061 238.182 397.97 238.182 411.909V443.727C238.182 462.394 241.455 478.273 248 491.364C254.667 504.454 263.939 514.454 275.818 521.364C287.697 528.151 301.576 531.545 317.455 531.545C327.758 531.545 337.152 530.091 345.636 527.182C354.121 524.151 361.455 519.667 367.636 513.727C373.818 507.788 378.545 500.454 381.818 491.727L433.273 501C429.152 516.151 421.758 529.424 411.091 540.818C400.545 552.091 387.273 560.879 371.273 567.182C355.394 573.364 337.273 576.454 316.909 576.454Z" fill="#88A2E2"/>
</svg>
